<svg width="1024" height="1024" viewBox="0 0 1024 1024" fill="none" xmlns="http://www.w3.org/2000/svg">
<rect width="1024" height="1024" fill="black"/>
<g filter="url(#filter0_ii_41_354)">
<path d="M848 256C874.51 256 896 277.49 896 304V720C896 746.51 874.51 768 848 768H176C149.49 768 128 746.51 128 720V304C128 277.49 149.49 256 176 256H848ZM295 304C280.641 304 269 315.641 269 330V694C269 708.359 280.641 720 295 720H729C743.359 720 755 708.359 755 694V330C755 315.641 743.359 304 729 304H295ZM200 652C186.745 652 176 662.745 176 676V695C176 708.255 186.745 719 200 719H219C232.255 719 243 708.255 243 695V676C243 662.745 232.255 652 219 652H200ZM805 652C791.745 652 781 662.745 781 676V695C781 708.255 791.745 719 805 719H824C837.255 719 848 708.255 848 695V676C848 662.745 837.255 652 824 652H805ZM200 536C186.745 536 176 546.745 176 560V579C176 592.255 186.745 603 200 603H219C232.255 603 243 592.255 243 579V560C243 546.745 232.255 536 219 536H200ZM805 536C791.745 536 781 546.745 781 560V579C781 592.255 791.745 603 805 603H824C837.255 603 848 592.255 848 579V560C848 546.745 837.255 536 824 536H805ZM200 420C186.745 420 176 430.745 176 444V463C176 476.255 186.745 487 200 487H219C232.255 487 243 476.255 243 463V444C243 430.745 232.255 420 219 420H200ZM805 420C791.745 420 781 430.745 781 444V463C781 476.255 791.745 487 805 487H824C837.255 487 848 476.255 848 463V444C848 430.745 837.255 420 824 420H805ZM200 304C186.745 304 176 314.745 176 328V347C176 360.255 186.745 371 200 371H219C232.255 371 243 360.255 243 347V328C243 314.745 232.255 304 219 304H200ZM805 304C791.745 304 781 314.745 781 328V347C781 360.255 791.745 371 805 371H824C837.255 371 848 360.255 848 347V328C848 314.745 837.255 304 824 304H805Z" fill="url(#paint0_linear_41_354)"/>
</g>
<g filter="url(#filter1_dii_41_354)">
<path d="M584.016 350H449.673C440.308 350 432.197 356.498 430.154 365.637L374.447 614.832C371.653 627.328 381.16 639.195 393.965 639.195H467.787H470.058C483.256 639.195 492.836 651.754 489.346 664.483L446.748 819.858C444.035 829.751 457.336 835.75 462.956 827.168L635.725 563.373C644.437 550.072 634.894 532.415 618.994 532.415H558.342C543.52 532.415 533.847 516.856 540.407 503.565L601.952 378.851C608.511 365.559 598.839 350 584.016 350Z" fill="url(#paint1_linear_41_354)"/>
</g>
<defs>
<filter id="filter0_ii_41_354" x="124" y="252" width="776" height="520" filterUnits="userSpaceOnUse" color-interpolation-filters="sRGB">
<feFlood flood-opacity="0" result="BackgroundImageFix"/>
<feBlend mode="normal" in="SourceGraphic" in2="BackgroundImageFix" result="shape"/>
<feColorMatrix in="SourceAlpha" type="matrix" values="0 0 0 0 0 0 0 0 0 0 0 0 0 0 0 0 0 0 127 0" result="hardAlpha"/>
<feOffset dx="4" dy="4"/>
<feGaussianBlur stdDeviation="4"/>
<feComposite in2="hardAlpha" operator="arithmetic" k2="-1" k3="1"/>
<feColorMatrix type="matrix" values="0 0 0 0 1 0 0 0 0 1 0 0 0 0 1 0 0 0 0.5 0"/>
<feBlend mode="normal" in2="shape" result="effect1_innerShadow_41_354"/>
<feColorMatrix in="SourceAlpha" type="matrix" values="0 0 0 0 0 0 0 0 0 0 0 0 0 0 0 0 0 0 127 0" result="hardAlpha"/>
<feOffset dx="-4" dy="-4"/>
<feGaussianBlur stdDeviation="4"/>
<feComposite in2="hardAlpha" operator="arithmetic" k2="-1" k3="1"/>
<feColorMatrix type="matrix" values="0 0 0 0 0 0 0 0 0 0 0 0 0 0 0 0 0 0 0.25 0"/>
<feBlend mode="normal" in2="effect1_innerShadow_41_354" result="effect2_innerShadow_41_354"/>
</filter>
<filter id="filter1_dii_41_354" x="353.957" y="326" width="329.07" height="545.286" filterUnits="userSpaceOnUse" color-interpolation-filters="sRGB">
<feFlood flood-opacity="0" result="BackgroundImageFix"/>
<feColorMatrix in="SourceAlpha" type="matrix" values="0 0 0 0 0 0 0 0 0 0 0 0 0 0 0 0 0 0 127 0" result="hardAlpha"/>
<feOffset dx="12" dy="8"/>
<feGaussianBlur stdDeviation="16"/>
<feComposite in2="hardAlpha" operator="out"/>
<feColorMatrix type="matrix" values="0 0 0 0 0 0 0 0 0 0 0 0 0 0 0 0 0 0 0.5 0"/>
<feBlend mode="normal" in2="BackgroundImageFix" result="effect1_dropShadow_41_354"/>
<feBlend mode="normal" in="SourceGraphic" in2="effect1_dropShadow_41_354" result="shape"/>
<feColorMatrix in="SourceAlpha" type="matrix" values="0 0 0 0 0 0 0 0 0 0 0 0 0 0 0 0 0 0 127 0" result="hardAlpha"/>
<feOffset dx="4" dy="4"/>
<feGaussianBlur stdDeviation="4"/>
<feComposite in2="hardAlpha" operator="arithmetic" k2="-1" k3="1"/>
<feColorMatrix type="matrix" values="0 0 0 0 1 0 0 0 0 1 0 0 0 0 1 0 0 0 0.5 0"/>
<feBlend mode="normal" in2="shape" result="effect2_innerShadow_41_354"/>
<feColorMatrix in="SourceAlpha" type="matrix" values="0 0 0 0 0 0 0 0 0 0 0 0 0 0 0 0 0 0 127 0" result="hardAlpha"/>
<feOffset dx="-4" dy="-4"/>
<feGaussianBlur stdDeviation="4"/>
<feComposite in2="hardAlpha" operator="arithmetic" k2="-1" k3="1"/>
<feColorMatrix type="matrix" values="0 0 0 0 0 0 0 0 0 0 0 0 0 0 0 0 0 0 0.25 0"/>
<feBlend mode="normal" in2="effect2_innerShadow_41_354" result="effect3_innerShadow_41_354"/>
</filter>
<linearGradient id="paint0_linear_41_354" x1="512" y1="256" x2="512" y2="768" gradientUnits="userSpaceOnUse">
<stop stop-color="white"/>
<stop offset="1" stop-color="white" stop-opacity="0"/>
</linearGradient>
<linearGradient id="paint1_linear_41_354" x1="506.492" y1="350" x2="506.492" y2="831.286" gradientUnits="userSpaceOnUse">
<stop stop-color="#FF9B04"/>
<stop offset="1" stop-color="#FA4D06"/>
</linearGradient>
</defs>
</svg>
