<svg width="1024" height="1024" viewBox="0 0 1024 1024" fill="none" xmlns="http://www.w3.org/2000/svg">
<rect width="1024" height="1024" fill="#FA4D06"/>
<path d="M479.732 653.454C494.459 653.454 508.174 650.566 520.879 644.79C533.584 639.013 544.412 631.07 553.363 620.961C562.314 610.563 568.089 598.866 570.688 585.868L578.484 550.775L492.726 553.375C470.204 553.953 452.157 559.151 438.586 568.972C425.015 578.792 418.229 591.645 418.229 607.531C418.229 621.106 423.86 632.225 435.121 640.89C446.671 649.266 461.541 653.454 479.732 653.454ZM413.465 757C387.478 757 363.8 751.512 342.433 740.537C321.355 729.272 304.607 714.109 292.191 695.046C280.064 675.694 274 653.599 274 628.76C274 580.236 292.769 541.966 330.306 513.95C368.132 485.644 419.817 470.625 485.363 468.892L596.675 465.426L602.306 437.699C603.172 433.944 603.605 430.911 603.605 428.6C603.894 426.29 604.038 424.123 604.038 422.102C604.038 408.527 598.119 397.696 586.28 389.608C574.73 381.232 558.849 377.044 538.637 377.044C525.643 377.044 514.093 378.922 503.987 382.676C493.881 386.142 485.507 391.341 478.866 398.273C472.225 404.916 467.316 413.148 464.14 422.968H327.707C333.482 391.197 346.331 363.758 366.255 340.652C386.467 317.256 412.166 299.205 443.35 286.496C474.535 273.499 509.907 267 549.465 267C589.312 267 624.251 273.065 654.28 285.196C684.31 297.038 707.699 313.646 724.446 335.019C741.482 356.104 750 380.799 750 409.104C750 415.459 749.567 422.246 748.701 429.467C748.123 436.688 747.257 442.753 746.102 447.663L682 750.068H537.338L549.465 694.18H546.433C538.059 706.599 527.231 717.575 513.949 727.106C500.667 736.638 485.507 744.003 468.471 749.202C451.724 754.401 433.389 757 413.465 757Z" fill="white"/>
</svg>
